<mxfile host="Electron" modified="2023-11-06T23:16:56.241Z" agent="Mozilla/5.0 (Macintosh; Intel Mac OS X 10_15_7) AppleWebKit/537.36 (KHTML, like Gecko) draw.io/21.6.8 Chrome/114.0.5735.289 Electron/25.5.0 Safari/537.36" etag="1xbSehlrem-TeQH4MYx9" version="21.6.8" type="device">
  <diagram name="Page-1" id="D9qPdtbPbg2xgUS5jd3A">
    <mxGraphModel dx="2083" dy="790" grid="1" gridSize="10" guides="1" tooltips="1" connect="1" arrows="1" fold="1" page="1" pageScale="1" pageWidth="827" pageHeight="1169" math="0" shadow="0">
      <root>
        <mxCell id="0" />
        <mxCell id="1" parent="0" />
        <mxCell id="T8Tu5EWhMRfgMnXcFSc5-1" value="AWS Cloud" style="points=[[0,0],[0.25,0],[0.5,0],[0.75,0],[1,0],[1,0.25],[1,0.5],[1,0.75],[1,1],[0.75,1],[0.5,1],[0.25,1],[0,1],[0,0.75],[0,0.5],[0,0.25]];outlineConnect=0;gradientColor=none;html=1;whiteSpace=wrap;fontSize=12;fontStyle=0;container=1;pointerEvents=0;collapsible=0;recursiveResize=0;shape=mxgraph.aws4.group;grIcon=mxgraph.aws4.group_aws_cloud_alt;strokeColor=#232F3E;fillColor=none;verticalAlign=top;align=left;spacingLeft=30;fontColor=#232F3E;dashed=0;" parent="1" vertex="1">
          <mxGeometry x="80" y="240" width="800" height="430" as="geometry" />
        </mxCell>
        <mxCell id="T8Tu5EWhMRfgMnXcFSc5-8" style="edgeStyle=orthogonalEdgeStyle;rounded=0;orthogonalLoop=1;jettySize=auto;html=1;entryX=0;entryY=0.5;entryDx=0;entryDy=0;entryPerimeter=0;" parent="T8Tu5EWhMRfgMnXcFSc5-1" source="T8Tu5EWhMRfgMnXcFSc5-2" target="T8Tu5EWhMRfgMnXcFSc5-7" edge="1">
          <mxGeometry relative="1" as="geometry" />
        </mxCell>
        <mxCell id="T8Tu5EWhMRfgMnXcFSc5-19" style="edgeStyle=orthogonalEdgeStyle;rounded=0;orthogonalLoop=1;jettySize=auto;html=1;entryX=0.5;entryY=0;entryDx=0;entryDy=0;entryPerimeter=0;" parent="T8Tu5EWhMRfgMnXcFSc5-1" source="T8Tu5EWhMRfgMnXcFSc5-2" target="T8Tu5EWhMRfgMnXcFSc5-3" edge="1">
          <mxGeometry relative="1" as="geometry" />
        </mxCell>
        <mxCell id="T8Tu5EWhMRfgMnXcFSc5-2" value="Cloudfront" style="sketch=0;points=[[0,0,0],[0.25,0,0],[0.5,0,0],[0.75,0,0],[1,0,0],[0,1,0],[0.25,1,0],[0.5,1,0],[0.75,1,0],[1,1,0],[0,0.25,0],[0,0.5,0],[0,0.75,0],[1,0.25,0],[1,0.5,0],[1,0.75,0]];outlineConnect=0;fontColor=#232F3E;gradientColor=#945DF2;gradientDirection=north;fillColor=#5A30B5;strokeColor=#ffffff;dashed=0;verticalLabelPosition=bottom;verticalAlign=top;align=center;html=1;fontSize=12;fontStyle=0;aspect=fixed;shape=mxgraph.aws4.resourceIcon;resIcon=mxgraph.aws4.cloudfront;" parent="T8Tu5EWhMRfgMnXcFSc5-1" vertex="1">
          <mxGeometry x="115" y="60" width="60" height="60" as="geometry" />
        </mxCell>
        <mxCell id="T8Tu5EWhMRfgMnXcFSc5-9" style="edgeStyle=orthogonalEdgeStyle;rounded=0;orthogonalLoop=1;jettySize=auto;html=1;entryX=0;entryY=0.5;entryDx=0;entryDy=0;entryPerimeter=0;" parent="T8Tu5EWhMRfgMnXcFSc5-1" source="T8Tu5EWhMRfgMnXcFSc5-3" target="T8Tu5EWhMRfgMnXcFSc5-4" edge="1">
          <mxGeometry relative="1" as="geometry">
            <Array as="points">
              <mxPoint x="240" y="280" />
              <mxPoint x="240" y="230" />
            </Array>
          </mxGeometry>
        </mxCell>
        <mxCell id="T8Tu5EWhMRfgMnXcFSc5-10" style="edgeStyle=orthogonalEdgeStyle;rounded=0;orthogonalLoop=1;jettySize=auto;html=1;entryX=0;entryY=0.5;entryDx=0;entryDy=0;entryPerimeter=0;" parent="T8Tu5EWhMRfgMnXcFSc5-1" source="T8Tu5EWhMRfgMnXcFSc5-3" target="T8Tu5EWhMRfgMnXcFSc5-5" edge="1">
          <mxGeometry relative="1" as="geometry">
            <Array as="points">
              <mxPoint x="240" y="280" />
              <mxPoint x="240" y="345" />
            </Array>
          </mxGeometry>
        </mxCell>
        <mxCell id="T8Tu5EWhMRfgMnXcFSc5-20" style="edgeStyle=orthogonalEdgeStyle;rounded=0;orthogonalLoop=1;jettySize=auto;html=1;entryX=0.5;entryY=1;entryDx=0;entryDy=0;entryPerimeter=0;" parent="T8Tu5EWhMRfgMnXcFSc5-1" source="T8Tu5EWhMRfgMnXcFSc5-3" target="T8Tu5EWhMRfgMnXcFSc5-2" edge="1">
          <mxGeometry relative="1" as="geometry" />
        </mxCell>
        <mxCell id="T8Tu5EWhMRfgMnXcFSc5-3" value="HTTP&lt;br&gt;ApiGatway" style="sketch=0;points=[[0,0,0],[0.25,0,0],[0.5,0,0],[0.75,0,0],[1,0,0],[0,1,0],[0.25,1,0],[0.5,1,0],[0.75,1,0],[1,1,0],[0,0.25,0],[0,0.5,0],[0,0.75,0],[1,0.25,0],[1,0.5,0],[1,0.75,0]];outlineConnect=0;fontColor=#232F3E;gradientColor=#945DF2;gradientDirection=north;fillColor=#5A30B5;strokeColor=#ffffff;dashed=0;verticalLabelPosition=bottom;verticalAlign=top;align=center;html=1;fontSize=12;fontStyle=0;aspect=fixed;shape=mxgraph.aws4.resourceIcon;resIcon=mxgraph.aws4.api_gateway;" parent="T8Tu5EWhMRfgMnXcFSc5-1" vertex="1">
          <mxGeometry x="115" y="250" width="60" height="60" as="geometry" />
        </mxCell>
        <mxCell id="T8Tu5EWhMRfgMnXcFSc5-11" style="edgeStyle=orthogonalEdgeStyle;rounded=0;orthogonalLoop=1;jettySize=auto;html=1;entryX=0;entryY=0.5;entryDx=0;entryDy=0;entryPerimeter=0;" parent="T8Tu5EWhMRfgMnXcFSc5-1" source="T8Tu5EWhMRfgMnXcFSc5-4" target="T8Tu5EWhMRfgMnXcFSc5-6" edge="1">
          <mxGeometry relative="1" as="geometry" />
        </mxCell>
        <mxCell id="T8Tu5EWhMRfgMnXcFSc5-15" style="edgeStyle=orthogonalEdgeStyle;rounded=0;orthogonalLoop=1;jettySize=auto;html=1;entryX=1;entryY=0.5;entryDx=0;entryDy=0;entryPerimeter=0;" parent="T8Tu5EWhMRfgMnXcFSc5-1" source="T8Tu5EWhMRfgMnXcFSc5-4" target="T8Tu5EWhMRfgMnXcFSc5-3" edge="1">
          <mxGeometry relative="1" as="geometry">
            <Array as="points">
              <mxPoint x="240" y="230" />
              <mxPoint x="240" y="280" />
            </Array>
          </mxGeometry>
        </mxCell>
        <mxCell id="T8Tu5EWhMRfgMnXcFSc5-22" value="POST: urls" style="edgeLabel;html=1;align=center;verticalAlign=middle;resizable=0;points=[];" parent="T8Tu5EWhMRfgMnXcFSc5-15" vertex="1" connectable="0">
          <mxGeometry x="-0.4974" y="-2" relative="1" as="geometry">
            <mxPoint x="1" y="2" as="offset" />
          </mxGeometry>
        </mxCell>
        <mxCell id="T8Tu5EWhMRfgMnXcFSc5-4" value="PostUrl" style="sketch=0;points=[[0,0,0],[0.25,0,0],[0.5,0,0],[0.75,0,0],[1,0,0],[0,1,0],[0.25,1,0],[0.5,1,0],[0.75,1,0],[1,1,0],[0,0.25,0],[0,0.5,0],[0,0.75,0],[1,0.25,0],[1,0.5,0],[1,0.75,0]];outlineConnect=0;fontColor=#232F3E;gradientColor=#F78E04;gradientDirection=north;fillColor=#D05C17;strokeColor=#ffffff;dashed=0;verticalLabelPosition=bottom;verticalAlign=top;align=center;html=1;fontSize=12;fontStyle=0;aspect=fixed;shape=mxgraph.aws4.resourceIcon;resIcon=mxgraph.aws4.lambda;" parent="T8Tu5EWhMRfgMnXcFSc5-1" vertex="1">
          <mxGeometry x="390" y="200" width="60" height="60" as="geometry" />
        </mxCell>
        <mxCell id="T8Tu5EWhMRfgMnXcFSc5-12" style="edgeStyle=orthogonalEdgeStyle;rounded=0;orthogonalLoop=1;jettySize=auto;html=1;entryX=0;entryY=0.5;entryDx=0;entryDy=0;entryPerimeter=0;" parent="T8Tu5EWhMRfgMnXcFSc5-1" source="T8Tu5EWhMRfgMnXcFSc5-5" target="T8Tu5EWhMRfgMnXcFSc5-6" edge="1">
          <mxGeometry relative="1" as="geometry" />
        </mxCell>
        <mxCell id="T8Tu5EWhMRfgMnXcFSc5-16" style="edgeStyle=orthogonalEdgeStyle;rounded=0;orthogonalLoop=1;jettySize=auto;html=1;entryX=1;entryY=0.5;entryDx=0;entryDy=0;entryPerimeter=0;" parent="T8Tu5EWhMRfgMnXcFSc5-1" source="T8Tu5EWhMRfgMnXcFSc5-5" target="T8Tu5EWhMRfgMnXcFSc5-3" edge="1">
          <mxGeometry relative="1" as="geometry">
            <Array as="points">
              <mxPoint x="240" y="345" />
              <mxPoint x="240" y="280" />
            </Array>
          </mxGeometry>
        </mxCell>
        <mxCell id="T8Tu5EWhMRfgMnXcFSc5-23" value="GET: urls/{path}" style="edgeLabel;html=1;align=center;verticalAlign=middle;resizable=0;points=[];" parent="T8Tu5EWhMRfgMnXcFSc5-16" vertex="1" connectable="0">
          <mxGeometry x="-0.4751" relative="1" as="geometry">
            <mxPoint x="7" as="offset" />
          </mxGeometry>
        </mxCell>
        <mxCell id="T8Tu5EWhMRfgMnXcFSc5-5" value="GetUrl" style="sketch=0;points=[[0,0,0],[0.25,0,0],[0.5,0,0],[0.75,0,0],[1,0,0],[0,1,0],[0.25,1,0],[0.5,1,0],[0.75,1,0],[1,1,0],[0,0.25,0],[0,0.5,0],[0,0.75,0],[1,0.25,0],[1,0.5,0],[1,0.75,0]];outlineConnect=0;fontColor=#232F3E;gradientColor=#F78E04;gradientDirection=north;fillColor=#D05C17;strokeColor=#ffffff;dashed=0;verticalLabelPosition=bottom;verticalAlign=top;align=center;html=1;fontSize=12;fontStyle=0;aspect=fixed;shape=mxgraph.aws4.resourceIcon;resIcon=mxgraph.aws4.lambda;" parent="T8Tu5EWhMRfgMnXcFSc5-1" vertex="1">
          <mxGeometry x="390" y="315" width="60" height="60" as="geometry" />
        </mxCell>
        <mxCell id="T8Tu5EWhMRfgMnXcFSc5-13" style="edgeStyle=orthogonalEdgeStyle;rounded=0;orthogonalLoop=1;jettySize=auto;html=1;" parent="T8Tu5EWhMRfgMnXcFSc5-1" source="T8Tu5EWhMRfgMnXcFSc5-6" target="T8Tu5EWhMRfgMnXcFSc5-4" edge="1">
          <mxGeometry relative="1" as="geometry" />
        </mxCell>
        <mxCell id="T8Tu5EWhMRfgMnXcFSc5-14" style="edgeStyle=orthogonalEdgeStyle;rounded=0;orthogonalLoop=1;jettySize=auto;html=1;" parent="T8Tu5EWhMRfgMnXcFSc5-1" source="T8Tu5EWhMRfgMnXcFSc5-6" target="T8Tu5EWhMRfgMnXcFSc5-5" edge="1">
          <mxGeometry relative="1" as="geometry" />
        </mxCell>
        <mxCell id="T8Tu5EWhMRfgMnXcFSc5-6" value="DynamoDB" style="sketch=0;points=[[0,0,0],[0.25,0,0],[0.5,0,0],[0.75,0,0],[1,0,0],[0,1,0],[0.25,1,0],[0.5,1,0],[0.75,1,0],[1,1,0],[0,0.25,0],[0,0.5,0],[0,0.75,0],[1,0.25,0],[1,0.5,0],[1,0.75,0]];outlineConnect=0;fontColor=#232F3E;gradientColor=#4D72F3;gradientDirection=north;fillColor=#3334B9;strokeColor=#ffffff;dashed=0;verticalLabelPosition=bottom;verticalAlign=top;align=center;html=1;fontSize=12;fontStyle=0;aspect=fixed;shape=mxgraph.aws4.resourceIcon;resIcon=mxgraph.aws4.dynamodb;" parent="T8Tu5EWhMRfgMnXcFSc5-1" vertex="1">
          <mxGeometry x="660" y="260" width="60" height="60" as="geometry" />
        </mxCell>
        <mxCell id="T8Tu5EWhMRfgMnXcFSc5-7" value="Website&lt;br&gt;Bucket" style="sketch=0;points=[[0,0,0],[0.25,0,0],[0.5,0,0],[0.75,0,0],[1,0,0],[0,1,0],[0.25,1,0],[0.5,1,0],[0.75,1,0],[1,1,0],[0,0.25,0],[0,0.5,0],[0,0.75,0],[1,0.25,0],[1,0.5,0],[1,0.75,0]];outlineConnect=0;fontColor=#232F3E;gradientColor=#60A337;gradientDirection=north;fillColor=#277116;strokeColor=#ffffff;dashed=0;verticalLabelPosition=bottom;verticalAlign=top;align=center;html=1;fontSize=12;fontStyle=0;aspect=fixed;shape=mxgraph.aws4.resourceIcon;resIcon=mxgraph.aws4.s3;" parent="T8Tu5EWhMRfgMnXcFSc5-1" vertex="1">
          <mxGeometry x="660" y="60" width="60" height="60" as="geometry" />
        </mxCell>
        <mxCell id="T8Tu5EWhMRfgMnXcFSc5-18" style="edgeStyle=orthogonalEdgeStyle;rounded=0;orthogonalLoop=1;jettySize=auto;html=1;entryX=0;entryY=0.5;entryDx=0;entryDy=0;entryPerimeter=0;" parent="1" source="T8Tu5EWhMRfgMnXcFSc5-17" target="T8Tu5EWhMRfgMnXcFSc5-2" edge="1">
          <mxGeometry relative="1" as="geometry" />
        </mxCell>
        <mxCell id="T8Tu5EWhMRfgMnXcFSc5-17" value="devices" style="sketch=0;outlineConnect=0;gradientColor=none;fontColor=#545B64;strokeColor=none;fillColor=#879196;dashed=0;verticalLabelPosition=bottom;verticalAlign=top;align=center;html=1;fontSize=12;fontStyle=0;aspect=fixed;shape=mxgraph.aws4.illustration_devices;pointerEvents=1" parent="1" vertex="1">
          <mxGeometry x="-90" y="300" width="84.25" height="61.5" as="geometry" />
        </mxCell>
        <mxCell id="T8Tu5EWhMRfgMnXcFSc5-21" style="edgeStyle=orthogonalEdgeStyle;rounded=0;orthogonalLoop=1;jettySize=auto;html=1;" parent="1" source="T8Tu5EWhMRfgMnXcFSc5-2" target="T8Tu5EWhMRfgMnXcFSc5-17" edge="1">
          <mxGeometry relative="1" as="geometry" />
        </mxCell>
      </root>
    </mxGraphModel>
  </diagram>
</mxfile>
